<mxfile host="app.diagrams.net" agent="Mozilla/5.0 (Macintosh; Intel Mac OS X 10_15_7) AppleWebKit/537.36 (KHTML, like Gecko) Chrome/135.0.0.0 Safari/537.36" version="27.0.2">
  <diagram name="ページ1" id="GXTrVWDYIJdZ1ybi5MhK">
    <mxGraphModel dx="7152" dy="1608" grid="0" gridSize="10" guides="1" tooltips="1" connect="1" arrows="1" fold="1" page="0" pageScale="1" pageWidth="827" pageHeight="1169" math="0" shadow="0">
      <root>
        <mxCell id="0" />
        <mxCell id="1" parent="0" />
        <mxCell id="xCjf6ivOAAyqeGdXt_Mn-3" value="Vertical Container" style="swimlane;whiteSpace=wrap;html=1;" parent="1" vertex="1">
          <mxGeometry x="-5407" y="-60" width="200" height="180" as="geometry" />
        </mxCell>
        <mxCell id="xCjf6ivOAAyqeGdXt_Mn-2" value="" style="shape=internalStorage;whiteSpace=wrap;html=1;backgroundOutline=1;" parent="xCjf6ivOAAyqeGdXt_Mn-3" vertex="1">
          <mxGeometry y="23" width="199" height="157" as="geometry" />
        </mxCell>
        <mxCell id="xCjf6ivOAAyqeGdXt_Mn-4" value="&lt;font style=&quot;vertical-align: inherit;&quot;&gt;&lt;font style=&quot;vertical-align: inherit;&quot;&gt;&lt;font style=&quot;vertical-align: inherit;&quot;&gt;&lt;font style=&quot;vertical-align: inherit;&quot;&gt;PK&lt;/font&gt;&lt;/font&gt;&lt;/font&gt;&lt;/font&gt;" style="text;html=1;align=center;verticalAlign=middle;whiteSpace=wrap;rounded=0;" parent="xCjf6ivOAAyqeGdXt_Mn-3" vertex="1">
          <mxGeometry x="-20" y="16" width="60" height="30" as="geometry" />
        </mxCell>
        <mxCell id="xCjf6ivOAAyqeGdXt_Mn-5" value="id" style="text;html=1;align=center;verticalAlign=middle;whiteSpace=wrap;rounded=0;" parent="xCjf6ivOAAyqeGdXt_Mn-3" vertex="1">
          <mxGeometry x="5" y="16" width="60" height="30" as="geometry" />
        </mxCell>
        <mxCell id="xCjf6ivOAAyqeGdXt_Mn-6" value="user_name" style="text;html=1;align=center;verticalAlign=middle;whiteSpace=wrap;rounded=0;" parent="xCjf6ivOAAyqeGdXt_Mn-3" vertex="1">
          <mxGeometry x="40" y="52" width="47" height="18" as="geometry" />
        </mxCell>
        <mxCell id="xCjf6ivOAAyqeGdXt_Mn-10" value="updated_ad" style="text;html=1;align=center;verticalAlign=middle;whiteSpace=wrap;rounded=0;" parent="xCjf6ivOAAyqeGdXt_Mn-3" vertex="1">
          <mxGeometry x="24" y="146" width="90" height="18" as="geometry" />
        </mxCell>
        <mxCell id="xCjf6ivOAAyqeGdXt_Mn-9" value="created_at" style="text;html=1;align=center;verticalAlign=middle;whiteSpace=wrap;rounded=0;" parent="xCjf6ivOAAyqeGdXt_Mn-3" vertex="1">
          <mxGeometry x="24" y="120" width="90" height="18" as="geometry" />
        </mxCell>
        <mxCell id="xCjf6ivOAAyqeGdXt_Mn-8" value="password" style="text;html=1;align=center;verticalAlign=middle;whiteSpace=wrap;rounded=0;" parent="xCjf6ivOAAyqeGdXt_Mn-3" vertex="1">
          <mxGeometry x="24" y="98" width="90" height="18" as="geometry" />
        </mxCell>
        <mxCell id="xCjf6ivOAAyqeGdXt_Mn-7" value="email" style="text;html=1;align=center;verticalAlign=middle;whiteSpace=wrap;rounded=0;" parent="xCjf6ivOAAyqeGdXt_Mn-3" vertex="1">
          <mxGeometry x="12" y="76" width="90" height="18" as="geometry" />
        </mxCell>
        <mxCell id="f8ku1r2MILvTPiw2s1If-2" value="products" style="swimlane;whiteSpace=wrap;html=1;" vertex="1" parent="1">
          <mxGeometry x="-5061" y="-71" width="200" height="275" as="geometry" />
        </mxCell>
        <mxCell id="f8ku1r2MILvTPiw2s1If-3" value="" style="shape=internalStorage;whiteSpace=wrap;html=1;backgroundOutline=1;" vertex="1" parent="f8ku1r2MILvTPiw2s1If-2">
          <mxGeometry y="23" width="199" height="252" as="geometry" />
        </mxCell>
        <mxCell id="f8ku1r2MILvTPiw2s1If-4" value="&lt;font style=&quot;vertical-align: inherit;&quot;&gt;&lt;font style=&quot;vertical-align: inherit;&quot;&gt;&lt;font style=&quot;vertical-align: inherit;&quot;&gt;&lt;font style=&quot;vertical-align: inherit;&quot;&gt;PK&lt;/font&gt;&lt;/font&gt;&lt;/font&gt;&lt;/font&gt;" style="text;html=1;align=center;verticalAlign=middle;whiteSpace=wrap;rounded=0;" vertex="1" parent="f8ku1r2MILvTPiw2s1If-2">
          <mxGeometry x="-20" y="16" width="60" height="30" as="geometry" />
        </mxCell>
        <mxCell id="f8ku1r2MILvTPiw2s1If-5" value="id" style="text;html=1;align=center;verticalAlign=middle;whiteSpace=wrap;rounded=0;" vertex="1" parent="f8ku1r2MILvTPiw2s1If-2">
          <mxGeometry x="5" y="16" width="60" height="30" as="geometry" />
        </mxCell>
        <mxCell id="f8ku1r2MILvTPiw2s1If-6" value="company_id" style="text;html=1;align=center;verticalAlign=middle;whiteSpace=wrap;rounded=0;" vertex="1" parent="f8ku1r2MILvTPiw2s1If-2">
          <mxGeometry x="37" y="53" width="47" height="18" as="geometry" />
        </mxCell>
        <mxCell id="f8ku1r2MILvTPiw2s1If-7" value="comment" style="text;html=1;align=center;verticalAlign=middle;whiteSpace=wrap;rounded=0;" vertex="1" parent="f8ku1r2MILvTPiw2s1If-2">
          <mxGeometry x="11" y="155" width="90" height="18" as="geometry" />
        </mxCell>
        <mxCell id="f8ku1r2MILvTPiw2s1If-8" value="stock" style="text;html=1;align=center;verticalAlign=middle;whiteSpace=wrap;rounded=0;" vertex="1" parent="f8ku1r2MILvTPiw2s1If-2">
          <mxGeometry x="3" y="130" width="90" height="18" as="geometry" />
        </mxCell>
        <mxCell id="f8ku1r2MILvTPiw2s1If-9" value="price" style="text;html=1;align=center;verticalAlign=middle;whiteSpace=wrap;rounded=0;" vertex="1" parent="f8ku1r2MILvTPiw2s1If-2">
          <mxGeometry y="106" width="90" height="18" as="geometry" />
        </mxCell>
        <mxCell id="f8ku1r2MILvTPiw2s1If-10" value="product_name" style="text;html=1;align=center;verticalAlign=middle;whiteSpace=wrap;rounded=0;" vertex="1" parent="f8ku1r2MILvTPiw2s1If-2">
          <mxGeometry x="23" y="82" width="90" height="18" as="geometry" />
        </mxCell>
        <mxCell id="f8ku1r2MILvTPiw2s1If-32" value="updated_at" style="text;html=1;align=center;verticalAlign=middle;whiteSpace=wrap;rounded=0;" vertex="1" parent="f8ku1r2MILvTPiw2s1If-2">
          <mxGeometry x="15.5" y="235" width="90" height="18" as="geometry" />
        </mxCell>
        <mxCell id="f8ku1r2MILvTPiw2s1If-31" value="creted_at" style="text;html=1;align=center;verticalAlign=middle;whiteSpace=wrap;rounded=0;" vertex="1" parent="f8ku1r2MILvTPiw2s1If-2">
          <mxGeometry x="11" y="207" width="90" height="18" as="geometry" />
        </mxCell>
        <mxCell id="f8ku1r2MILvTPiw2s1If-30" value="ing_path" style="text;html=1;align=center;verticalAlign=middle;whiteSpace=wrap;rounded=0;" vertex="1" parent="f8ku1r2MILvTPiw2s1If-2">
          <mxGeometry x="9" y="178" width="90" height="18" as="geometry" />
        </mxCell>
        <mxCell id="f8ku1r2MILvTPiw2s1If-34" style="edgeStyle=none;curved=1;rounded=0;orthogonalLoop=1;jettySize=auto;html=1;exitX=0.5;exitY=1;exitDx=0;exitDy=0;fontSize=12;startSize=8;endSize=8;" edge="1" parent="f8ku1r2MILvTPiw2s1If-2" source="f8ku1r2MILvTPiw2s1If-3" target="f8ku1r2MILvTPiw2s1If-3">
          <mxGeometry relative="1" as="geometry" />
        </mxCell>
        <mxCell id="f8ku1r2MILvTPiw2s1If-11" value="Vertical Container" style="swimlane;whiteSpace=wrap;html=1;" vertex="1" parent="1">
          <mxGeometry x="-4697" y="56" width="157" height="182" as="geometry" />
        </mxCell>
        <mxCell id="f8ku1r2MILvTPiw2s1If-12" value="" style="shape=internalStorage;whiteSpace=wrap;html=1;backgroundOutline=1;" vertex="1" parent="f8ku1r2MILvTPiw2s1If-11">
          <mxGeometry y="23" width="157" height="158" as="geometry" />
        </mxCell>
        <mxCell id="f8ku1r2MILvTPiw2s1If-13" value="&lt;font style=&quot;vertical-align: inherit;&quot;&gt;&lt;font style=&quot;vertical-align: inherit;&quot;&gt;&lt;font style=&quot;vertical-align: inherit;&quot;&gt;&lt;font style=&quot;vertical-align: inherit;&quot;&gt;PK&lt;/font&gt;&lt;/font&gt;&lt;/font&gt;&lt;/font&gt;" style="text;html=1;align=center;verticalAlign=middle;whiteSpace=wrap;rounded=0;" vertex="1" parent="f8ku1r2MILvTPiw2s1If-11">
          <mxGeometry x="-20" y="16" width="60" height="30" as="geometry" />
        </mxCell>
        <mxCell id="f8ku1r2MILvTPiw2s1If-14" value="id" style="text;html=1;align=center;verticalAlign=middle;whiteSpace=wrap;rounded=0;" vertex="1" parent="f8ku1r2MILvTPiw2s1If-11">
          <mxGeometry x="5" y="16" width="60" height="30" as="geometry" />
        </mxCell>
        <mxCell id="f8ku1r2MILvTPiw2s1If-15" value="company_name" style="text;html=1;align=center;verticalAlign=middle;whiteSpace=wrap;rounded=0;" vertex="1" parent="f8ku1r2MILvTPiw2s1If-11">
          <mxGeometry x="49" y="52" width="47" height="18" as="geometry" />
        </mxCell>
        <mxCell id="f8ku1r2MILvTPiw2s1If-16" value="updated_ad" style="text;html=1;align=center;verticalAlign=middle;whiteSpace=wrap;rounded=0;" vertex="1" parent="f8ku1r2MILvTPiw2s1If-11">
          <mxGeometry x="21" y="139" width="90" height="18" as="geometry" />
        </mxCell>
        <mxCell id="f8ku1r2MILvTPiw2s1If-17" value="created_at" style="text;html=1;align=center;verticalAlign=middle;whiteSpace=wrap;rounded=0;" vertex="1" parent="f8ku1r2MILvTPiw2s1If-11">
          <mxGeometry x="16" y="121" width="90" height="18" as="geometry" />
        </mxCell>
        <mxCell id="f8ku1r2MILvTPiw2s1If-18" value="representative_name" style="text;html=1;align=center;verticalAlign=middle;whiteSpace=wrap;rounded=0;" vertex="1" parent="f8ku1r2MILvTPiw2s1If-11">
          <mxGeometry x="40" y="99" width="90" height="18" as="geometry" />
        </mxCell>
        <mxCell id="f8ku1r2MILvTPiw2s1If-19" value="street_address" style="text;html=1;align=center;verticalAlign=middle;whiteSpace=wrap;rounded=0;" vertex="1" parent="f8ku1r2MILvTPiw2s1If-11">
          <mxGeometry x="24" y="77" width="90" height="18" as="geometry" />
        </mxCell>
        <mxCell id="f8ku1r2MILvTPiw2s1If-20" value="Vertical Container" style="swimlane;whiteSpace=wrap;html=1;" vertex="1" parent="1">
          <mxGeometry x="-4697" y="-164" width="148" height="172" as="geometry" />
        </mxCell>
        <mxCell id="f8ku1r2MILvTPiw2s1If-21" value="" style="shape=internalStorage;whiteSpace=wrap;html=1;backgroundOutline=1;" vertex="1" parent="f8ku1r2MILvTPiw2s1If-20">
          <mxGeometry y="23" width="147" height="147" as="geometry" />
        </mxCell>
        <mxCell id="f8ku1r2MILvTPiw2s1If-22" value="&lt;font style=&quot;vertical-align: inherit;&quot;&gt;&lt;font style=&quot;vertical-align: inherit;&quot;&gt;&lt;font style=&quot;vertical-align: inherit;&quot;&gt;&lt;font style=&quot;vertical-align: inherit;&quot;&gt;PK&lt;/font&gt;&lt;/font&gt;&lt;/font&gt;&lt;/font&gt;" style="text;html=1;align=center;verticalAlign=middle;whiteSpace=wrap;rounded=0;" vertex="1" parent="f8ku1r2MILvTPiw2s1If-20">
          <mxGeometry x="-20" y="16" width="60" height="30" as="geometry" />
        </mxCell>
        <mxCell id="f8ku1r2MILvTPiw2s1If-23" value="id" style="text;html=1;align=center;verticalAlign=middle;whiteSpace=wrap;rounded=0;" vertex="1" parent="f8ku1r2MILvTPiw2s1If-20">
          <mxGeometry x="5" y="16" width="60" height="30" as="geometry" />
        </mxCell>
        <mxCell id="f8ku1r2MILvTPiw2s1If-24" value="product_id" style="text;html=1;align=center;verticalAlign=middle;whiteSpace=wrap;rounded=0;" vertex="1" parent="f8ku1r2MILvTPiw2s1If-20">
          <mxGeometry x="43" y="71" width="47" height="18" as="geometry" />
        </mxCell>
        <mxCell id="f8ku1r2MILvTPiw2s1If-26" value="update_at" style="text;html=1;align=center;verticalAlign=middle;whiteSpace=wrap;rounded=0;" vertex="1" parent="f8ku1r2MILvTPiw2s1If-20">
          <mxGeometry x="21.5" y="122" width="90" height="18" as="geometry" />
        </mxCell>
        <mxCell id="f8ku1r2MILvTPiw2s1If-28" value="created_at" style="text;html=1;align=center;verticalAlign=middle;whiteSpace=wrap;rounded=0;" vertex="1" parent="f8ku1r2MILvTPiw2s1If-20">
          <mxGeometry x="25" y="96" width="90" height="18" as="geometry" />
        </mxCell>
        <mxCell id="f8ku1r2MILvTPiw2s1If-35" style="edgeStyle=none;curved=1;rounded=0;orthogonalLoop=1;jettySize=auto;html=1;exitX=0.5;exitY=1;exitDx=0;exitDy=0;fontSize=12;startSize=8;endSize=8;" edge="1" parent="f8ku1r2MILvTPiw2s1If-20" source="f8ku1r2MILvTPiw2s1If-26" target="f8ku1r2MILvTPiw2s1If-26">
          <mxGeometry relative="1" as="geometry" />
        </mxCell>
        <mxCell id="f8ku1r2MILvTPiw2s1If-36" style="edgeStyle=none;curved=1;rounded=0;orthogonalLoop=1;jettySize=auto;html=1;exitX=1;exitY=1;exitDx=0;exitDy=0;fontSize=12;startSize=8;endSize=8;" edge="1" parent="f8ku1r2MILvTPiw2s1If-20" source="f8ku1r2MILvTPiw2s1If-21" target="f8ku1r2MILvTPiw2s1If-21">
          <mxGeometry relative="1" as="geometry" />
        </mxCell>
        <mxCell id="f8ku1r2MILvTPiw2s1If-44" value="" style="edgeStyle=entityRelationEdgeStyle;fontSize=12;html=1;endArrow=ERzeroToMany;startArrow=ERmandOne;rounded=0;startSize=8;endSize=8;curved=1;exitX=0.994;exitY=0.428;exitDx=0;exitDy=0;exitPerimeter=0;" edge="1" parent="1" source="f8ku1r2MILvTPiw2s1If-3">
          <mxGeometry width="100" height="100" relative="1" as="geometry">
            <mxPoint x="-4797" y="40" as="sourcePoint" />
            <mxPoint x="-4697" y="-60" as="targetPoint" />
            <Array as="points">
              <mxPoint x="-4789" y="-29" />
              <mxPoint x="-4796" y="-12" />
              <mxPoint x="-4773" y="7" />
              <mxPoint x="-4796" y="-16" />
              <mxPoint x="-4785" y="-14" />
            </Array>
          </mxGeometry>
        </mxCell>
        <mxCell id="f8ku1r2MILvTPiw2s1If-45" value="" style="edgeStyle=entityRelationEdgeStyle;fontSize=12;html=1;endArrow=ERzeroToMany;startArrow=ERmandOne;rounded=0;startSize=8;endSize=8;curved=1;entryX=0.985;entryY=0.575;entryDx=0;entryDy=0;entryPerimeter=0;exitX=0;exitY=0.75;exitDx=0;exitDy=0;" edge="1" parent="1" source="f8ku1r2MILvTPiw2s1If-12" target="f8ku1r2MILvTPiw2s1If-3">
          <mxGeometry width="100" height="100" relative="1" as="geometry">
            <mxPoint x="-4702" y="183" as="sourcePoint" />
            <mxPoint x="-4810" y="99" as="targetPoint" />
            <Array as="points">
              <mxPoint x="-4727" y="63" />
              <mxPoint x="-4734" y="80" />
              <mxPoint x="-4711" y="99" />
              <mxPoint x="-4734" y="76" />
              <mxPoint x="-4779" y="99" />
              <mxPoint x="-4793" y="94" />
              <mxPoint x="-4723" y="78" />
            </Array>
          </mxGeometry>
        </mxCell>
      </root>
    </mxGraphModel>
  </diagram>
</mxfile>
